<svg xmlns="http://www.w3.org/2000/svg" viewBox="0 0 32 32" fill="none">
  <defs>
    <linearGradient id="amber-grad" x1="0" y1="0" x2="32" y2="32" gradientUnits="userSpaceOnUse">
      <stop offset="0%" stop-color="#fbbf24"/>
      <stop offset="100%" stop-color="#d97706"/>
    </linearGradient>
  </defs>
  <!-- Outer bracket: { -->
  <path d="M8 6C8 6 5 6 5 9V13C5 14 4 15 3 16C4 17 5 18 5 19V23C5 26 8 26 8 26" stroke="url(#amber-grad)" stroke-width="2.2" stroke-linecap="round" fill="none"/>
  <!-- Inner data node -->
  <circle cx="16" cy="16" r="4.5" fill="url(#amber-grad)" opacity="0.9"/>
  <circle cx="16" cy="16" r="2" fill="#0a0a0a"/>
  <!-- Connecting lines (data flow) -->
  <line x1="11.5" y1="16" x2="13" y2="16" stroke="url(#amber-grad)" stroke-width="1.5" stroke-linecap="round"/>
  <line x1="19" y1="16" x2="20.5" y2="16" stroke="url(#amber-grad)" stroke-width="1.5" stroke-linecap="round"/>
  <!-- Outer bracket: } -->
  <path d="M24 6C24 6 27 6 27 9V13C27 14 28 15 29 16C28 17 27 18 27 19V23C27 26 24 26 24 26" stroke="url(#amber-grad)" stroke-width="2.2" stroke-linecap="round" fill="none"/>
</svg>
